<?xml version="1.0" encoding="UTF-8" standalone="no"?>
<!-- Created with Inkscape (http://www.inkscape.org/) -->

<svg
   width="71.821518"
   height="84.077644"
   viewBox="0 0 71.821518 84.077644"
   version="1.1"
   id="svg1"
   xml:space="preserve"
   sodipodi:docname="hermes.svg"
   inkscape:version="1.4.2 (ebf0e940, 2025-05-08)"
   xmlns:inkscape="http://www.inkscape.org/namespaces/inkscape"
   xmlns:sodipodi="http://sodipodi.sourceforge.net/DTD/sodipodi-0.dtd"
   xmlns="http://www.w3.org/2000/svg"
   xmlns:svg="http://www.w3.org/2000/svg"><sodipodi:namedview
     id="namedview1"
     pagecolor="#ffffff"
     bordercolor="#000000"
     borderopacity="0.25"
     inkscape:showpageshadow="2"
     inkscape:pageopacity="0.0"
     inkscape:pagecheckerboard="0"
     inkscape:deskcolor="#d1d1d1"
     inkscape:document-units="mm"
     inkscape:zoom="0.614048"
     inkscape:cx="128.65444"
     inkscape:cy="140.0542"
     inkscape:window-width="1512"
     inkscape:window-height="841"
     inkscape:window-x="1774"
     inkscape:window-y="120"
     inkscape:window-maximized="0"
     inkscape:current-layer="layer1" /><defs
     id="defs1" /><g
     inkscape:label="Layer 1"
     inkscape:groupmode="layer"
     id="layer1"
     transform="translate(5010.0806,-3953.1698)"><path
       style="fill:#c6a75e;fill-opacity:1;stroke:#c6a75e;stroke-width:2.6;stroke-dasharray:none;stroke-opacity:1"
       d="m -4963.8444,4035.4649 c -3.7113,-1.194 -7.2179,-3.514 -10.3009,-6.8152 -3.1788,-3.4038 -6.8348,-9.3085 -6.5258,-10.5396 0.081,-0.3232 0.7923,-1.0157 1.5803,-1.5389 7.1512,-4.7482 12.8633,-12.2011 14.7588,-19.2566 0.7948,-2.9588 0.8398,-7.7475 0.097,-10.3011 -1.0371,-3.5636 -2.4199,-6.0495 -5.0913,-9.1529 -3.2423,-3.7667 -4.0295,-4.2236 -20.7115,-12.0211 -11.2105,-5.24 -15.2362,-7.0091 -15.2998,-6.7233 -0.1777,0.7995 0.8027,2.989 2.0163,4.5026 3.1115,3.8805 9.7296,7.5945 23.0731,12.9482 2.8376,1.1385 5.4273,2.3086 5.7547,2.6002 1.0323,0.9194 0.6033,2.3443 -0.8123,2.698 -0.8468,0.2116 -16.1595,-6.0861 -19.952,-8.2057 -0.6657,-0.3722 -1.264,-0.623 -1.3295,-0.5576 -0.2883,0.2884 0.8687,2.9312 1.8918,4.321 3.3161,4.5046 11.2709,9.1692 21.9879,12.8936 2.5657,0.8916 3.2512,1.2391 3.5719,1.8106 0.3535,0.6301 0.3526,0.7867 -0.01,1.4349 -0.2764,0.4963 -0.6554,0.7524 -1.1926,0.8057 -1.3857,0.1375 -9.5638,-2.9326 -14.7269,-5.5286 -1.1352,-0.5707 -2.0639,-0.9143 -2.0639,-0.7636 0,0.7196 1.103,3.2794 1.8782,4.3588 1.6558,2.3058 6.2422,5.1996 11.7478,7.4125 2.0051,0.8059 2.7775,1.4572 2.7793,2.3434 0,0.8595 -2.7385,4.7144 -4.5302,6.3732 -0.8743,0.8095 -2.294,1.9501 -3.155,2.5348 -2.5832,1.7542 -7.2076,4.2258 -7.9066,4.2258 -1.1849,0 -5.1387,-1.353 -7.4872,-2.5622 -2.7518,-1.4168 -4.9278,-3.5686 -5.5982,-5.5361 -0.5918,-1.7367 -0.5497,-4.5335 0.096,-6.3699 0.6593,-1.8759 2.3734,-4.7789 3.5725,-6.0503 0.772,-0.8185 1.0348,-0.9452 1.652,-0.7963 0.8521,0.2056 1.3954,0.8184 1.3954,1.574 0,0.2921 -0.5403,1.3364 -1.2006,2.3207 -2.4964,3.7207 -3.2136,6.5599 -2.1665,8.5764 0.9626,1.854 3.732,3.6121 7.6957,4.8856 l 1.8151,0.5832 1.0953,-0.5995 c 4.9217,-2.6936 8.1278,-5.0961 9.6422,-7.2254 l 0.8738,-1.2288 -1.1384,-0.4506 c -4.4942,-1.7791 -9.5147,-4.9934 -11.3912,-7.2931 -1.8635,-2.2837 -3.1087,-5.5625 -3.1087,-8.1854 0,-1.2265 -0.039,-1.2879 -1.5214,-2.3785 -4.9885,-3.6711 -7.6106,-7.5708 -7.9337,-11.7991 l -0.1468,-1.9217 -1.7967,-1.3319 c -4.0723,-3.0189 -6.4742,-6.6391 -6.7683,-10.2009 -0.235,-2.8465 0.5129,-4.8644 1.8029,-4.8644 0.4434,0 27.8141,12.6041 32.9004,15.1505 1.8171,0.9097 5.0785,3.5402 6.897,5.5627 5.215,5.8001 7.54,12.406 6.7583,19.2022 -0.9582,8.3307 -5.9752,16.568 -13.8808,22.7908 l -2.521,1.9844 0.688,1.1906 c 2.9585,5.1199 7.0525,9.1513 11.3557,11.182 l 1.8153,0.8566 9.2019,0.079 9.2018,0.079 0.7862,-0.7862 c 0.897,-0.897 0.9737,-1.5423 0.3418,-2.8741 -0.3827,-0.8063 -0.8746,-1.145 -3.5398,-2.4369 -1.7024,-0.8253 -4.1341,-1.8506 -5.4038,-2.2785 -2.3073,-0.7776 -2.3092,-0.7791 -3.859,-2.8321 -2.6837,-3.5552 -5.0587,-8.1892 -5.4579,-10.6489 -0.1575,-0.9704 0.5933,-1.9814 1.4713,-1.9814 0.7935,0 1.8045,0.9714 1.988,1.9101 0.2749,1.4073 2.6879,6.0128 4.1936,8.0044 1.3497,1.7851 1.4697,1.8722 3.7223,2.701 2.9499,1.0854 7.1848,3.0862 8.2469,3.8963 1.0498,0.8008 2.2151,2.9465 2.4227,4.4614 0.3171,2.3133 -1.0397,4.5249 -3.4703,5.6568 -1.3077,0.6089 -1.4414,0.6168 -10.3207,0.6053 -7.8592,-0.01 -9.1797,-0.071 -10.451,-0.4798 z"
       id="path1" /></g></svg>
